<svg width="457" height="425" viewBox="0 0 457 425" fill="none" xmlns="http://www.w3.org/2000/svg">
<path fill-rule="evenodd" clip-rule="evenodd" d="M216.65 222.618C205.341 223.922 196.663 223.766 190.616 222.149C184.568 220.532 179.8 217.092 176.309 211.829C172.503 203.78 170.393 199.167 169.976 197.991C167.936 192.225 167.709 186.559 168.1 182.746C168.61 177.766 171.346 171.277 176.309 163.279C177.016 157.718 178.188 152.793 179.827 148.503C181.465 144.213 184.749 138.037 189.677 129.974L190.381 103.471C192.461 97.4046 194.415 93.1045 196.245 90.5714C198.074 88.0383 200.185 86.7088 202.577 86.584C204.596 86.3924 206.472 86.8614 208.206 87.9913C209.94 89.1213 213.224 92.014 218.057 96.6694C222.048 89.7043 226.582 84.3879 231.66 80.7206C236.738 77.0534 243.461 74.2391 251.83 72.2773L253.003 69.932L253.145 56.1361L249.251 22.5547H244.091L252.065 10.8276C252.777 8.24332 253.48 6.36743 254.176 5.19852C254.871 4.03009 256.171 2.70063 258.074 1.21157C258.109 0.779684 259.673 0.544964 262.768 0.507409C265.863 0.469853 270.739 0.626177 277.396 0.976849C280.236 1.62937 282.194 2.48939 283.259 3.55689C284.325 4.62393 285.264 6.89132 286.071 10.3586L297.507 22.5711L290.296 23.0236L289.592 45.3051C288.587 49.1264 287.649 51.706 286.775 53.0448C285.902 54.3837 284.499 55.4 282.555 56.0938L271.063 56.7975L269.655 70.4009L270.594 72.2773C276.462 73.9551 280.452 75.2841 282.555 76.2643C287.611 78.6185 292.183 82.0276 295.69 87.9913C298.145 92.1665 300.685 97.9341 304.131 103.94C307.168 109.228 312.717 118.532 320.786 131.851L328.757 138.887L332.748 146.861L342.362 154.132L346.817 139.59C337.752 125.831 333.217 117.075 333.217 113.322C333.217 111.753 334.165 110.275 335.09 109.334C336.386 108.025 338.16 107.221 341.188 107.458C343.207 107.617 345.164 108.867 347.052 111.211L374.026 183.684C371.34 192.482 368.998 199.049 366.989 203.385C364.984 207.722 362.013 212.022 358.079 216.285C352.408 219.466 347.638 221.342 343.77 221.914C339.902 222.486 333.569 221.939 324.772 220.273C321.692 218.862 319.66 217.533 318.674 216.285C315.026 211.658 313.496 205.79 311.637 202.682C309.027 198.316 307.464 194.251 306.947 190.486L294.751 150.848L241.98 149.206L237.055 189.313C234.362 200.213 231.47 208.188 228.377 213.236C225.283 218.285 221.374 221.412 216.65 222.618Z" fill="white"/>
<path fill-rule="evenodd" clip-rule="evenodd" d="M220.285 231.259C219.329 231.087 218.625 231.001 218.172 231.003C216.433 231.011 215.013 230.921 214.182 229.595C213.026 227.751 213.338 225.56 215.121 223.023L220.05 221.38H222.397L239.532 222.084L244.93 221.38L263.942 220.676C265.977 221.615 266.679 223.414 266.055 226.074C265.429 228.734 263.708 230.377 260.891 231.003L255.258 231.259L217.233 405.612H192.822C197.001 378.225 200.365 357.623 202.915 343.814C205.465 330.005 211.255 292.487 220.285 231.259ZM279.903 231.259C279.866 230.705 278.378 230.619 275.444 231.003C272.942 229.751 271.923 227.795 272.392 225.135C272.862 222.475 274.035 221.067 275.913 220.911L279.434 221.38H290.231L301.028 222.084L312.999 220.911C316.754 221.223 318.632 222.945 318.632 226.074C318.632 227.853 318.031 228.776 317.224 229.595C316.815 230.009 316.032 230.479 314.877 231.003L311.121 231.259L320.745 405.846H295.395C291.982 374.45 289.79 352.442 288.823 339.819C287.673 324.785 281.162 250.056 279.903 231.259Z" fill="white"/>
<path fill-rule="evenodd" clip-rule="evenodd" d="M220.285 231.023H255.258L217.233 405.377H192.822C197.001 377.99 200.365 357.388 202.915 343.579C205.465 329.77 211.255 292.252 220.285 231.023ZM279.903 231.023H311.121L320.745 405.611H295.395C291.982 374.215 289.79 352.208 288.823 339.584C287.673 324.55 281.162 249.821 279.903 231.023Z" stroke="#263E4B" stroke-width="1.5"/>
<path fill-rule="evenodd" clip-rule="evenodd" d="M242.113 75.4668L215.649 75.5912C202.446 75.6532 191.591 86.0175 190.918 99.2031L190.475 107.894C190.888 103.425 191.436 100.292 192.118 98.4947C193.2 95.6424 194.45 94.0012 195.873 92.1507C198.024 89.3519 200.461 86.9906 202.445 86.5108C206.983 85.4142 212.069 88.9393 217.702 97.085C218.646 95.2603 219.428 93.8505 220.049 92.8553C221.29 90.8691 222.61 88.7243 224.978 86.5108C229.673 82.1249 235.385 78.4435 242.113 75.4668Z" fill="#BAD9EA"/>
<path fill-rule="evenodd" clip-rule="evenodd" d="M220.52 220.919C222.934 221.8 227.472 222.192 234.133 222.094C237.761 222.041 244.29 220.958 249.86 220.684C252.965 220.532 257.66 220.532 263.943 220.684L269.341 206.35H274.505L276.148 220.684C281.641 221.028 285.551 221.263 287.884 221.389C292.898 221.661 297.066 221.859 300.324 221.859C305.854 221.859 309.92 221.467 312.53 220.684L300.559 153.715L244.93 155.83C244.203 166.028 241.543 177.228 236.95 189.432C235.971 192.033 235.814 195.32 234.837 198.596C233.348 203.588 231.709 208.416 229.908 211.755C228.201 214.923 225.071 217.977 220.52 220.919Z" fill="#BAD9EA"/>
<path d="M312.158 220.841L306.783 189.492C306.75 189.301 306.882 189.118 307.07 189.085C307.262 189.052 307.445 189.181 307.478 189.373L312.825 220.568H313.585C316.566 220.568 318.984 222.987 318.984 225.972C318.984 228.957 316.566 231.377 313.585 231.377H276.547C273.904 231.377 271.763 229.232 271.763 226.585C271.763 226.364 271.777 226.143 271.81 225.924L272.092 223.905C272.345 222.09 273.749 220.669 275.528 220.377L274.185 206.704H269.585L264.425 220.403C265.864 220.736 266.885 222.081 266.768 223.601C266.759 223.732 266.74 223.862 266.712 223.991L266.28 226.044C265.633 229.151 262.896 231.377 259.725 231.377H216.786C214.807 231.377 213.203 229.771 213.203 227.79C213.203 227.415 213.262 227.043 213.377 226.686C213.69 225.717 214.081 224.465 214.549 222.932C214.606 222.745 214.802 222.641 214.988 222.698C215.174 222.754 215.279 222.952 215.222 223.138C214.753 224.675 214.362 225.93 214.047 226.903C213.954 227.19 213.907 227.489 213.907 227.79C213.907 229.381 215.196 230.671 216.786 230.671H259.725C262.562 230.671 265.011 228.68 265.593 225.9L266.022 223.847C266.043 223.748 266.057 223.648 266.064 223.547C266.163 222.263 265.206 221.141 263.925 221.037C261.012 220.98 258.951 220.951 257.745 220.949C254.477 220.946 245.262 221.481 243.334 221.739C238.957 222.326 236.639 222.41 232.854 222.283C232.731 222.278 232.731 222.278 232.607 222.274C231.255 222.228 230.608 222.212 229.745 222.212C226.614 222.212 224.275 222.134 222.723 221.976C220.901 221.79 220.077 221.531 220.17 220.871L220.868 220.97C220.875 220.918 220.861 220.88 220.851 220.863C220.901 220.901 221.002 220.948 221.151 220.995C221.497 221.104 222.047 221.198 222.794 221.274C224.318 221.43 226.636 221.508 229.745 221.508C230.618 221.508 231.271 221.524 232.631 221.57C232.754 221.574 232.754 221.574 232.877 221.578C236.626 221.704 238.906 221.621 243.24 221.04C245.202 220.778 254.448 220.241 257.745 220.245C258.925 220.246 260.909 220.274 263.7 220.328L269.012 206.227C269.064 206.09 269.195 205.999 269.341 205.999H274.504H277.556C277.748 205.999 277.908 206.156 277.908 206.351C277.908 206.546 277.748 206.704 277.556 206.704H274.894L276.241 220.416C277.795 220.672 280.903 220.802 285.536 220.802C287.278 220.802 295.794 221.278 298.244 221.509C301.037 221.771 305.68 221.55 312.158 220.841ZM312.543 221.272L312.567 221.505C305.868 222.247 301.075 222.483 298.178 222.211C295.751 221.982 287.254 221.508 285.536 221.508C280.579 221.508 277.359 221.36 275.842 221.06L275.847 221.045C274.274 221.208 273.007 222.426 272.786 224.003L272.505 226.021C272.481 226.208 272.467 226.397 272.467 226.585C272.467 228.842 274.293 230.671 276.547 230.671H313.585C316.177 230.671 318.28 228.567 318.28 225.972C318.28 223.376 316.177 221.272 313.585 221.272H312.543Z" fill="#263E4B"/>
<path d="M271.551 56.786L270.185 71.2279C281.311 75.0139 288.428 78.3014 291.554 81.119C295.615 84.7731 306.018 105.892 311.346 119.752C312.956 123.937 315.454 126.588 321.509 131.496L322.016 131.908C328.1 136.836 330.584 139.497 332.109 143.726C334.456 150.256 339.16 151.825 346.413 148.461C346.592 148.379 346.803 148.456 346.883 148.632C346.962 148.809 346.887 149.019 346.709 149.1C339.099 152.629 333.945 150.908 331.443 143.965C329.983 139.898 327.56 137.305 321.575 132.456L321.063 132.043C314.914 127.061 312.36 124.344 310.689 120.005C305.407 106.266 295.023 85.1904 291.085 81.6433C288.024 78.8882 280.884 75.5993 269.697 71.8062C269.542 71.7536 269.444 71.6015 269.458 71.4391L270.847 56.786H266.759C266.566 56.786 266.406 56.6283 266.406 56.4335C266.406 56.2391 266.566 56.0809 266.759 56.0809H271.228C271.232 56.0809 271.232 56.0809 271.237 56.0809H279.053C283.898 56.0809 286.71 54.1093 288.179 50.1237C289.357 46.9212 289.644 43.2197 289.644 35.3068V29.9176C289.644 29.843 289.644 29.7824 289.644 29.6453C289.648 27.0254 289.526 25.5157 288.963 23.214C288.954 23.2004 288.935 23.1835 288.916 23.1638C288.86 23.1088 288.785 23.037 288.686 22.9488H255.12C254.925 22.9488 254.768 22.791 254.768 22.5967C254.768 22.4019 254.925 22.2441 255.12 22.2441H288.822C288.907 22.2441 288.991 22.2756 289.057 22.3324C289.47 22.7009 289.597 22.8248 289.634 22.9821C290.226 25.3861 290.353 26.9503 290.348 29.6463C290.348 29.7834 290.348 29.8434 290.348 29.9176V35.3068C290.348 43.3089 290.057 47.0569 288.836 50.3678C287.268 54.6294 284.193 56.786 279.053 56.786H271.551ZM374.392 183.223L375.068 183.422C369.172 203.474 362.905 215.163 356.201 218.509C345.643 223.776 332.738 224.181 322.232 219.023C320.843 218.341 319.754 217.389 318.646 215.925C317.857 214.882 317.083 213.627 315.838 211.448C315.515 210.878 314.275 208.683 314.092 208.361C313.313 206.989 312.642 205.821 311.928 204.603C310.947 202.935 309.553 199.254 307.736 193.533L308.403 193.32C310.205 198.989 311.59 202.639 312.534 204.245C313.252 205.466 313.928 206.638 314.707 208.013C314.89 208.336 316.125 210.53 316.449 211.099C317.679 213.252 318.444 214.488 319.209 215.5C320.251 216.88 321.26 217.76 322.542 218.39C332.846 223.448 345.521 223.05 355.886 217.878C362.355 214.65 368.547 203.092 374.392 183.223Z" fill="#263E4B"/>
<path fill-rule="evenodd" clip-rule="evenodd" d="M277.792 74.5274L282.017 76.1723C284.989 85.2583 287.261 93.0125 288.824 99.4354C290.387 105.858 291.406 115.414 291.875 128.103L286.007 126.458C286.477 116.276 285.618 107.268 283.425 99.4354C282.472 96.0235 280.595 87.721 277.792 74.5274ZM241.88 75.4672L245.87 73.8223C246.809 80.7672 247.279 86.2502 247.279 90.271C247.279 94.2917 247.279 98.3646 247.279 102.49L241.176 111.184C242.115 108.365 242.584 102.02 242.584 92.1506C242.584 82.2816 242.349 76.7206 241.88 75.4672Z" fill="#BAD9EA"/>
<path d="M277.684 74.6001L277.548 73.9621L282.534 75.9037L282.585 76.0619C285.561 85.1559 287.834 92.9186 289.402 99.3513C290.974 105.802 291.993 115.378 292.462 128.089L292.481 128.572L285.876 126.721L285.89 126.441C286.36 116.294 285.501 107.324 283.322 99.5297C282.365 96.1084 280.487 87.8021 277.684 74.6001ZM283.998 99.3396C286.181 107.139 287.05 116.09 286.608 126.193L291.739 127.633C291.265 115.206 290.256 105.832 288.716 99.5184C287.162 93.1425 284.914 85.4493 281.97 76.4398L278.506 75.092C281.233 87.9073 283.064 95.9934 283.998 99.3396ZM241.785 75.5906L241.666 75.2709L246.393 73.3223L246.454 73.7748C247.395 80.7338 247.865 86.2314 247.865 90.2705V102.601L240.316 113.356L241.077 111.072C241.999 108.302 242.467 101.98 242.467 92.1506C242.467 82.359 242.232 76.782 241.785 75.5906ZM243.171 92.1506C243.171 100.299 242.853 106.052 242.208 109.435L247.161 102.378V90.2705C247.161 86.3558 246.713 81.0385 245.817 74.3222L242.542 75.6718C242.968 77.4364 243.171 82.8834 243.171 92.1506Z" fill="#263E4B"/>
<path d="M271.116 75.5672L271.792 75.3672L303.724 183.257C305.545 192.792 312.122 197.539 323.562 197.539C335.007 197.539 344.415 189.892 351.799 174.53L352.433 174.835C344.945 190.419 335.317 198.244 323.562 198.244C311.803 198.244 304.921 193.278 303.038 183.423L271.116 75.5672ZM288.476 162.826L289.171 162.933C285.547 186.431 278.74 198.244 268.638 198.244C260.466 198.244 255.029 172.793 252.794 124.124C252.373 114.948 252.138 99.2781 252.09 77.113L252.794 77.1112C252.842 99.2669 253.077 114.928 253.498 124.092C255.704 172.127 261.132 197.539 268.638 197.539C278.252 197.539 284.899 186.011 288.476 162.826Z" fill="#263E4B"/>
<path fill-rule="evenodd" clip-rule="evenodd" d="M323.552 151.268L348.146 148.683L349.601 162.524L325.007 165.109L323.552 151.268ZM300.742 126.456L298.428 104.465C299.357 102.087 301.798 100.69 305.76 100.273C309.718 99.8575 312.398 100.716 313.802 102.849L316.112 124.84L300.742 126.456ZM365.3 119.67L349.93 121.286L347.616 99.2946C348.545 96.9169 350.986 95.5199 354.948 95.1039C358.906 94.6876 361.586 95.5462 362.99 97.6793L365.3 119.67Z" fill="#263E4B"/>
<path fill-rule="evenodd" clip-rule="evenodd" d="M298.809 150.875L295.236 116.888C296.734 113.207 300.649 111.033 306.986 110.367C313.319 109.701 317.6 111.013 319.83 114.304L323.403 148.29L298.809 150.875ZM372.591 143.12L347.997 145.705L344.424 111.719C345.922 108.037 349.837 105.863 356.174 105.198C362.507 104.531 366.788 105.843 369.018 109.134L372.591 143.12Z" fill="white"/>
<path fill-rule="evenodd" clip-rule="evenodd" d="M298.653 150.969L295.08 116.982C296.578 113.301 300.493 111.127 306.83 110.461C313.163 109.795 317.444 111.107 319.674 114.397L323.246 148.384L298.653 150.969ZM372.434 143.214L347.84 145.799L344.268 111.812C345.766 108.131 349.681 105.957 356.018 105.291C362.351 104.625 366.632 105.937 368.862 109.227L372.434 143.214Z" fill="white" stroke="#263E4B" stroke-width="1.5" stroke-linecap="round" stroke-linejoin="round"/>
<path fill-rule="evenodd" clip-rule="evenodd" d="M298.052 188.543L293.916 149.226C296.057 144.924 301.479 142.315 310.192 141.4C318.9 140.484 324.749 141.908 327.735 145.671L331.866 184.989L298.052 188.543ZM381.053 179.819L347.24 183.373L343.104 144.056C345.245 139.754 350.667 137.145 359.379 136.23C368.088 135.314 373.937 136.738 376.922 140.501L381.053 179.819Z" fill="white"/>
<path d="M297.976 188.904C297.783 188.925 297.61 188.784 297.591 188.59L293.46 149.273C293.451 149.206 293.465 149.139 293.493 149.079C295.694 144.646 301.224 141.986 310.045 141.06C318.861 140.133 324.823 141.584 327.903 145.462C327.945 145.515 327.968 145.578 327.978 145.645L332.109 184.963C332.128 185.156 331.987 185.33 331.794 185.35L297.976 188.904ZM331.372 184.686L327.288 145.822C324.373 142.232 318.659 140.863 310.116 141.76C301.577 142.658 296.272 145.185 294.169 149.302L298.253 188.166L331.372 184.686ZM381.297 179.793C381.316 179.986 381.175 180.16 380.982 180.18L347.164 183.734C346.971 183.755 346.798 183.614 346.779 183.42L342.648 144.103C342.639 144.036 342.653 143.969 342.681 143.909C344.887 139.476 350.417 136.816 359.233 135.89C368.049 134.963 374.011 136.414 377.091 140.292C377.133 140.345 377.156 140.408 377.166 140.475L381.297 179.793ZM380.56 179.516L376.476 140.652C373.56 137.062 367.847 135.693 359.308 136.59C350.765 137.489 345.465 140.015 343.357 144.132L347.441 182.997L380.56 179.516Z" fill="#263E4B"/>
<path fill-rule="evenodd" clip-rule="evenodd" d="M315.453 192.543C306.116 193.525 298.277 191.738 297.939 188.554C297.605 185.369 304.905 181.991 314.242 181.009C323.58 180.028 331.424 181.814 331.757 184.999C332.095 188.184 324.795 191.562 315.453 192.543ZM364.646 187.373C355.304 188.355 347.465 186.568 347.131 183.384C346.793 180.199 354.093 176.821 363.43 175.839C372.772 174.858 380.612 176.644 380.945 179.829C381.283 183.014 373.983 186.392 364.646 187.373Z" fill="#263E4B"/>
<path d="M289.629 157.52C292.582 157.209 294.723 154.563 294.413 151.609C294.103 148.656 291.456 146.513 288.503 146.823C285.55 147.133 283.409 149.779 283.719 152.733C284.029 155.687 286.677 157.83 289.629 157.52ZM289.554 156.819C286.987 157.089 284.691 155.226 284.419 152.659C284.151 150.093 286.01 147.793 288.578 147.524C291.141 147.254 293.441 149.116 293.714 151.683C293.981 154.249 292.122 156.549 289.554 156.819Z" fill="#263E4B"/>
<path d="M176.928 163.335L181.671 161.607C181.854 161.541 182.056 161.636 182.123 161.818C182.189 162.001 182.094 162.204 181.912 162.27L177.694 163.805L181.97 166.335C182.138 166.434 182.193 166.65 182.095 166.818C181.996 166.985 181.78 167.041 181.612 166.942L176.838 164.117L176.748 164.15C176.707 164.165 176.664 164.172 176.622 164.171C168.002 175.663 166.008 187.001 170.616 198.227C175.108 209.17 177.127 213.076 180.531 216.447C184.454 220.333 189.858 222.353 199.199 223.388C216.817 225.34 227.107 219.495 231.689 206.468C234.553 198.328 236.191 192.629 236.602 189.387C236.626 189.194 236.802 189.057 236.995 189.082C237.188 189.106 237.325 189.283 237.3 189.476C236.881 192.782 235.233 198.518 232.354 206.702C227.658 220.051 217.053 226.075 199.122 224.089C189.636 223.038 184.09 220.964 180.035 216.948C176.539 213.484 174.496 209.532 169.965 198.495C165.231 186.964 167.319 175.303 176.203 163.557C177.159 151.63 181.484 140.467 189.173 130.074C196.838 119.713 204.737 111.923 212.874 106.707C218.373 92.1209 226.358 82.3523 236.832 77.4232C242.05 74.9676 245.966 73.3348 248.588 72.5241C250.343 71.9814 251.593 71.7815 252.292 72.0021L253.499 49.8342C253.509 49.6398 253.676 49.491 253.87 49.5004C254.064 49.5122 254.213 49.6783 254.202 49.8727L252.947 72.9335C252.922 73.3898 252.243 73.3715 252.243 72.9142C252.243 72.4828 251.157 72.4678 248.796 73.1978C246.212 73.9968 242.322 75.6182 237.131 78.0612C226.813 82.917 218.932 92.5777 213.491 107.065C213.465 107.137 213.415 107.197 213.352 107.238C205.259 112.404 197.387 120.155 189.738 130.493C182.186 140.701 177.918 151.646 176.928 163.335Z" fill="#263E4B"/>
<path fill-rule="evenodd" clip-rule="evenodd" d="M252.676 70.0625L249.378 78.4129C249.188 78.895 249.424 79.4405 249.907 79.6311C250.097 79.7057 250.306 79.717 250.503 79.6625L264.587 75.7549L273.909 79.0748C274.397 79.249 274.932 78.9941 275.106 78.5054C275.214 78.2134 275.167 77.8885 274.984 77.6379L269.811 70.5324C268.853 71.3675 266.797 71.7853 263.645 71.7853C260.495 71.7853 256.838 71.2112 252.676 70.0625Z" fill="white"/>
<path d="M264.368 76.0116L250.831 79.7667C250.561 79.8418 250.273 79.8268 250.012 79.7235C249.349 79.4611 249.024 78.71 249.286 78.0462L252.583 69.6977C252.649 69.5301 252.831 69.4395 253.004 69.4874C257.138 70.6286 260.764 71.198 263.88 71.198C266.951 71.198 268.937 70.7938 269.815 70.0314C269.97 69.8958 270.209 69.9225 270.331 70.0897L275.5 77.1928C275.749 77.5378 275.815 77.9852 275.674 78.387C275.434 79.0597 274.697 79.4109 274.021 79.1714L265.073 75.9835C265.089 76.1173 265.108 76.2741 265.128 76.4543C265.216 77.219 265.348 78.4039 265.525 80.0103C265.877 83.2222 266.407 88.118 267.111 94.6977C267.13 94.8911 266.989 95.0648 266.797 95.0855C266.604 95.1061 266.43 94.9662 266.407 94.7728C265.705 88.1936 265.177 83.2983 264.824 80.0873C264.649 78.4823 264.517 77.2979 264.429 76.5351C264.405 76.3299 264.385 76.1553 264.368 76.0116ZM264.359 71.8998C264.436 72.2017 264.51 72.5382 264.58 72.9058C264.696 73.5044 264.786 74.0804 264.892 74.8404L264.937 75.1624C264.939 75.1713 264.939 75.1798 264.941 75.1883L274.261 78.5072C274.566 78.6161 274.899 78.4565 275.007 78.1509C275.073 77.9683 275.045 77.765 274.932 77.6082L269.97 70.7948C268.909 71.5036 267.045 71.8623 264.359 71.8998ZM264.248 75.3131C264.245 75.2967 264.243 75.2793 264.24 75.261L264.195 74.9385C264.09 74.1893 264.002 73.6231 263.889 73.0387C263.807 72.6115 263.721 72.2303 263.631 71.9017C260.581 71.8731 257.079 71.3224 253.122 70.2507L249.941 78.3053C249.822 78.6072 249.97 78.9485 250.271 79.0677C250.39 79.1146 250.521 79.1217 250.644 79.0874L264.248 75.3131Z" fill="#263E4B"/>
<path fill-rule="evenodd" clip-rule="evenodd" d="M216.295 150.73C235.773 119.649 246.961 102.495 249.86 99.2688C252.122 96.7511 255.997 96.5441 258.515 98.8063C260.399 100.5 261.048 103.177 260.147 105.545L253.146 123.942" fill="white"/>
<path d="M216.511 151.083C235.967 120.038 247.162 102.873 250.039 99.6711C252.173 97.2967 255.824 97.1033 258.196 99.2393C259.971 100.837 260.581 103.364 259.731 105.597L252.735 123.983L253.393 124.234L260.389 105.848C261.342 103.342 260.658 100.508 258.667 98.7154C256.007 96.3189 251.909 96.5358 249.516 99.1998C246.596 102.449 235.415 119.592 215.914 150.709L216.511 151.083Z" fill="#263E4B"/>
<path fill-rule="evenodd" clip-rule="evenodd" d="M259.804 36.4741C259.256 36.3126 258.676 36.2257 258.076 36.2257C254.705 36.2257 251.973 38.9612 251.973 42.335C251.973 45.2019 253.945 47.6078 256.606 48.2664L256.33 53.9509C256.256 55.4672 254.995 56.652 253.477 56.6309L246.233 56.529C245.769 56.5225 245.307 56.4535 244.861 56.3234C242.124 55.5258 240.55 52.6594 241.348 49.9212L249.309 22.597H250.251L250.255 22.5918L251.359 22.597H255.494L255.495 22.6167L265.314 22.6641C264.18 27.8786 263.162 31.3633 262.259 33.1176C261.615 34.3705 260.796 35.4897 259.804 36.4741ZM293.166 22.597C294.086 26.513 292.659 28.4715 288.876 28.4715C285.087 28.4715 279.412 26.513 271.844 22.597H293.166Z" fill="#263E4B"/>
<path fill-rule="evenodd" clip-rule="evenodd" d="M206.29 158.933L238.161 130.535C242.801 126.4 248.819 124.152 255.033 124.233L291.326 124.7C296.283 124.763 300.334 128.673 300.574 133.625C300.804 138.312 297.189 142.296 292.499 142.523C292.396 142.529 292.288 142.532 292.18 142.533L261.456 142.869C259.576 142.89 258.069 144.43 258.089 146.31C258.089 146.311 258.089 146.312 258.089 146.314C258.112 148.217 259.634 149.762 261.536 149.814L293.25 150.683C297.574 150.802 301.02 154.327 301.043 158.65C301.067 162.91 297.63 166.382 293.372 166.404C293.358 166.404 293.344 166.404 293.33 166.404H263.099C261.24 166.404 259.732 167.912 259.732 169.771C259.732 169.785 259.732 169.798 259.732 169.811C259.757 171.856 261.061 173.666 262.992 174.336L282.35 181.056C285.702 182.219 287.472 185.878 286.307 189.227C286.256 189.376 286.199 189.523 286.138 189.667C284.589 193.256 280.552 195.062 276.844 193.824L245.374 183.323L228.348 194.686C219.617 200.513 207.815 198.159 201.988 189.427C201.439 188.606 200.956 187.744 200.542 186.847C199.059 183.638 198.597 179.04 199.154 173.052C199.661 167.613 202.211 162.568 206.29 158.933Z" fill="white"/>
<path d="M205.02 192.307L210.957 188.486C208.92 186.539 207.275 184.146 205.886 181.365C203.872 177.333 204.534 169.624 207.834 158.187L206.71 159.189C202.691 162.77 200.179 167.744 199.681 173.107C199.132 179.027 199.589 183.559 201.04 186.699C201.444 187.574 201.916 188.416 202.45 189.219C203.21 190.36 204.074 191.391 205.02 192.307ZM205.553 192.802C211.74 198.332 221.098 199.219 228.321 194.398L229.963 193.302C223.437 194.482 218.128 193.519 213.874 190.786C213.026 190.241 212.234 189.638 211.493 188.979L205.553 192.802ZM208.209 156.909C208.209 156.907 208.21 156.906 208.211 156.903C208.251 156.769 208.363 156.676 208.493 156.656L238.108 130.268C242.812 126.077 248.911 123.798 255.208 123.879L291.517 124.346C296.652 124.412 300.854 128.469 301.103 133.607C301.342 138.488 297.582 142.637 292.704 142.874C292.596 142.88 292.484 142.883 292.371 142.884L261.634 143.221C259.951 143.239 258.601 144.62 258.62 146.305V146.308C258.64 148.022 260.009 149.414 261.721 149.461L293.446 150.33C297.953 150.454 301.549 154.134 301.572 158.647C301.596 163.102 298.009 166.732 293.559 166.756H293.517H263.273C261.611 166.756 260.263 168.105 260.263 169.77C260.263 169.788 260.263 169.788 260.263 169.806C260.285 171.702 261.494 173.38 263.283 174.001L282.649 180.725C286.179 181.949 288.048 185.806 286.822 189.338C286.766 189.496 286.705 189.652 286.639 189.806C285.015 193.563 280.795 195.454 276.917 194.159L245.604 183.711L228.711 194.985C219.815 200.923 207.795 198.516 201.864 189.61C201.31 188.777 200.82 187.903 200.401 186.995C198.89 183.723 198.42 179.074 198.98 173.042C199.494 167.501 202.089 162.362 206.241 158.662L208.209 156.909ZM208.827 157.303C205.303 169.173 204.546 177.106 206.516 181.05C208.462 184.947 210.913 188.046 214.254 190.192C218.603 192.986 224.108 193.864 231.007 192.376C231.103 192.356 231.199 192.376 231.275 192.427L245.5 182.933L277.138 193.491C280.668 194.67 284.517 192.948 285.991 189.527C286.052 189.388 286.109 189.249 286.156 189.107C287.254 185.942 285.578 182.488 282.419 181.39L263.052 174.667C260.982 173.949 259.585 172.008 259.559 169.815C259.559 169.793 259.559 169.793 259.559 169.77C259.559 167.716 261.222 166.051 263.273 166.051H293.517L293.554 166.051C297.615 166.03 300.891 162.716 300.868 158.651C300.849 154.518 297.554 151.148 293.427 151.035L261.702 150.165C259.612 150.108 257.941 148.409 257.916 146.317V146.313C257.893 144.239 259.554 142.538 261.627 142.516L292.366 142.18C292.465 142.178 292.568 142.175 292.672 142.17C297.159 141.952 300.619 138.133 300.399 133.641C300.169 128.875 296.272 125.112 291.507 125.051L255.199 124.584C249.078 124.505 243.148 126.721 238.576 130.795L208.827 157.303Z" fill="#263E4B"/>
<path fill-rule="evenodd" clip-rule="evenodd" d="M365.145 132.903L365.149 133.858C365.173 138.732 369.125 142.67 374.003 142.67H380.678C375.162 143.095 371.562 144.896 369.881 148.075C367.238 153.081 369.154 159.283 374.163 161.927C375.637 162.707 377.28 163.114 378.946 163.114H381.852L381.059 163.503C375.477 166.244 373.167 172.993 375.909 178.578C376.073 178.915 376.256 179.243 376.453 179.562C379.125 183.279 384.302 184.129 388.016 181.46C388.265 181.282 388.504 181.09 388.729 180.886L393.912 176.217C396.775 173.639 398.118 169.778 397.48 165.979C397.437 165.703 397.39 165.453 397.343 165.228C397.076 163.859 396.137 161.822 394.527 159.119C395.625 156.926 395.935 154.263 395.466 151.13C394.996 147.997 393.668 145.255 391.475 142.906C392.546 140.17 392.701 137.115 391.945 133.741C391.649 132.405 391.236 131.266 390.706 130.325C389.739 128.598 387.992 127.45 386.021 127.243L372.918 125.867C369.05 125.461 365.586 128.267 365.182 132.135C365.154 132.39 365.145 132.647 365.145 132.903Z" fill="white"/>
<path d="M381.951 162.528L394.434 158.595C395.438 156.496 395.725 153.95 395.274 150.948C394.814 147.895 393.523 145.225 391.392 142.931V143.024L380.571 142.812C375.327 143.267 371.933 145.005 370.347 148.006C367.798 152.838 369.638 158.826 374.468 161.38C375.891 162.134 377.477 162.528 379.088 162.528H381.951ZM382.139 163.208L381.36 163.589C375.961 166.24 373.727 172.773 376.374 178.181C376.539 178.51 376.712 178.831 376.895 179.123C379.454 182.686 384.411 183.498 387.969 180.937C388.204 180.768 388.429 180.586 388.645 180.391L393.823 175.727C396.602 173.225 397.907 169.475 397.283 165.787C397.241 165.521 397.194 165.279 397.152 165.063C396.903 163.782 396.025 161.857 394.523 159.305L382.139 163.208ZM380.834 142.112L391.387 142.319C392.349 139.709 392.476 136.8 391.758 133.585C391.467 132.282 391.063 131.176 390.556 130.267C389.641 128.639 387.998 127.555 386.139 127.36L373.037 125.984C369.361 125.598 366.07 128.267 365.685 131.946C365.662 132.189 365.648 132.432 365.648 132.676L365.652 133.623C365.676 138.303 369.469 142.084 374.144 142.084H380.834V142.112ZM369.727 147.676C370.98 145.304 373.248 143.677 376.515 142.789H374.144C369.084 142.789 364.972 138.694 364.948 133.627L364.943 132.679C364.943 132.41 364.957 132.14 364.986 131.873C365.413 127.807 369.051 124.857 373.112 125.283L386.214 126.659C388.298 126.877 390.143 128.094 391.171 129.922C391.716 130.895 392.138 132.064 392.443 133.431C393.194 136.786 393.058 139.843 392.039 142.593C394.189 144.959 395.499 147.712 395.969 150.844C396.438 153.963 396.142 156.64 395.081 158.869C396.649 161.523 397.569 163.536 397.846 164.926C397.889 165.149 397.936 165.397 397.978 165.67C398.64 169.596 397.25 173.588 394.293 176.251L389.12 180.915C388.885 181.127 388.636 181.325 388.382 181.51C384.505 184.298 379.106 183.413 376.308 179.515C376.102 179.183 375.914 178.842 375.745 178.491C373.013 172.913 375.158 166.212 380.524 163.233H379.088C377.36 163.233 375.661 162.811 374.135 162.003C368.966 159.266 366.99 152.852 369.727 147.676ZM374.135 127.861C374.327 127.858 374.487 128.013 374.492 128.208C374.492 128.403 374.337 128.563 374.144 128.565C371.548 128.603 370.398 130.155 370.619 133.406C370.844 136.673 371.999 138.138 374.116 137.99C374.313 137.977 374.478 138.123 374.492 138.317C374.506 138.511 374.36 138.68 374.168 138.694C371.591 138.873 370.164 137.065 369.919 133.455C369.671 129.829 371.098 127.904 374.135 127.861ZM377.501 147.96C377.693 147.944 377.862 148.088 377.881 148.282C377.895 148.476 377.754 148.647 377.557 148.663C374.971 148.88 373.933 150.509 374.379 153.738C374.83 156.98 376.088 158.362 378.191 158.066C378.383 158.039 378.562 158.174 378.585 158.366C378.613 158.559 378.477 158.737 378.285 158.765C375.731 159.124 374.182 157.419 373.684 153.834C373.182 150.236 374.473 148.215 377.501 147.96ZM382.435 168.515C382.627 168.475 382.81 168.597 382.853 168.788C382.89 168.979 382.768 169.165 382.58 169.205C380.041 169.736 379.205 171.48 380.045 174.629C380.886 177.792 382.299 179.011 384.35 178.461C384.538 178.411 384.73 178.523 384.782 178.711C384.834 178.899 384.721 179.092 384.533 179.142C382.04 179.81 380.294 178.307 379.365 174.81C378.426 171.3 379.463 169.136 382.435 168.515Z" fill="#263E4B"/>
<path fill-rule="evenodd" clip-rule="evenodd" d="M77.4439 231.585L88.8414 350.616H94.7094L89.1207 230.439C88.9743 227.286 86.2989 224.848 83.1452 224.995C83.0485 224.999 82.9523 225.006 82.8561 225.016C79.5488 225.338 77.127 228.278 77.4439 231.585Z" fill="white"/>
<path d="M77.0939 231.397L88.522 350.746H95.0791L89.473 230.201C89.3177 226.853 86.4776 224.265 83.1295 224.421C83.0272 224.425 82.9248 224.433 82.8225 224.443C79.3219 224.784 76.7587 227.896 77.0939 231.397ZM89.1623 350.042L77.7953 231.33C77.4967 228.215 79.7768 225.447 82.891 225.144C82.9812 225.135 83.0718 225.128 83.1624 225.124C86.1217 224.986 88.6323 227.274 88.7698 230.233L94.3411 350.042H89.1623Z" fill="#263E4B"/>
<path d="M85.9651 354.051C85.8914 354.231 85.6858 354.318 85.506 354.244C85.3257 354.17 85.2398 353.965 85.3135 353.785C89.9586 342.427 92.6626 334.491 93.4235 329.996C93.4559 329.804 93.6376 329.675 93.8291 329.708C94.0211 329.74 94.1502 329.922 94.1178 330.114C93.3456 334.675 90.629 342.647 85.9651 354.051ZM93.1654 314.312C93.2273 314.496 93.1278 314.695 92.9438 314.757C92.7593 314.819 92.5598 314.72 92.4978 314.535C90.4304 308.371 86.2538 303.111 79.9562 298.752C79.7966 298.641 79.7567 298.422 79.8671 298.262C79.9778 298.103 80.1971 298.063 80.3571 298.173C86.7744 302.615 91.0477 307.996 93.1654 314.312ZM88.1142 339.277C88.0339 339.454 87.8255 339.533 87.6485 339.452C87.471 339.372 87.3927 339.163 87.4729 338.986C88.101 337.6 88.5216 336.471 88.7343 335.604C91.6566 323.689 89.845 314.982 84.6713 308.793C84.5464 308.644 84.5661 308.422 84.7154 308.297C84.8647 308.173 85.0868 308.192 85.2116 308.342C90.5327 314.707 92.3922 323.645 89.4178 335.772C89.1934 336.688 88.7587 337.855 88.1142 339.277ZM79.8149 225.765C79.7905 225.573 79.9267 225.396 80.1196 225.372C80.3126 225.347 80.4891 225.483 80.5135 225.676C83.5644 249.593 95.014 262.242 114.912 263.726C115.106 263.741 115.251 263.91 115.237 264.104C115.222 264.298 115.053 264.443 114.859 264.429C94.6037 262.917 82.9057 249.994 79.8149 225.765ZM84.9699 225.403C84.9516 225.209 85.0938 225.037 85.2872 225.019C85.4811 225.001 85.6529 225.143 85.6712 225.337C87.671 246.397 97.1913 257.376 114.296 258.634C114.49 258.649 114.635 258.817 114.621 259.011C114.607 259.206 114.438 259.351 114.244 259.337C96.7706 258.051 87.0002 246.783 84.9699 225.403Z" fill="#263E4B"/>
<path fill-rule="evenodd" clip-rule="evenodd" d="M272.394 38.5759C271.488 38.5759 270.751 37.7342 270.751 36.6963C270.751 35.6579 271.488 34.8162 272.394 34.8162C273.3 34.8162 274.037 35.6579 274.037 36.6963C274.037 37.7342 273.3 38.5759 272.394 38.5759ZM286.947 38.5759C286.04 38.5759 285.303 37.7342 285.303 36.6963C285.303 35.6579 286.04 34.8162 286.947 34.8162C287.853 34.8162 288.59 35.6579 288.59 36.6963C288.59 37.7342 287.853 38.5759 286.947 38.5759ZM269.141 35.0443C269.014 35.1927 268.793 35.211 268.648 35.0852C268.498 34.9594 268.479 34.7373 268.605 34.5885C268.662 34.5223 268.76 34.412 268.901 34.2726C269.136 34.0416 269.394 33.8106 269.68 33.5947C270.516 32.9656 271.389 32.584 272.272 32.584C273.549 32.584 274.243 32.8891 274.948 33.6632C275.06 33.7853 275.173 33.9186 275.323 34.1017C275.365 34.1552 275.633 34.4904 275.718 34.5937C275.84 34.7448 275.816 34.9669 275.666 35.0899C275.516 35.2124 275.295 35.1899 275.173 35.0392C275.088 34.9331 274.816 34.5974 274.774 34.5458C274.633 34.3726 274.53 34.2481 274.431 34.1378C273.859 33.5111 273.352 33.2891 272.272 33.2891C271.572 33.2891 270.831 33.6125 270.108 34.158C269.845 34.3533 269.61 34.5632 269.399 34.773C269.272 34.8974 269.183 34.9927 269.141 35.0443ZM284.172 35.0345C284.05 35.1875 283.829 35.2138 283.679 35.0936C283.524 34.973 283.496 34.7514 283.618 34.5984C283.67 34.5322 283.764 34.4218 283.895 34.282C284.111 34.0505 284.355 33.8191 284.623 33.6027C285.402 32.9689 286.219 32.584 287.05 32.584C288.247 32.584 288.909 32.8938 289.566 33.6726C289.669 33.7951 289.773 33.9285 289.909 34.1115C289.951 34.1651 290.2 34.5002 290.28 34.6035C290.397 34.7589 290.364 34.98 290.209 35.0974C290.054 35.2147 289.834 35.1842 289.716 35.0288C289.636 34.9232 289.388 34.5871 289.35 34.5355C289.219 34.3627 289.12 34.2383 289.026 34.128C288.5 33.5064 288.04 33.2891 287.05 33.2891C286.411 33.2891 285.731 33.6088 285.064 34.15C284.825 34.3449 284.604 34.5542 284.412 34.7636C284.294 34.888 284.214 34.9828 284.172 35.0345ZM281.703 41.5132H284.473L281.374 33.5341C281.304 33.3529 281.393 33.1487 281.571 33.0778C281.755 33.0074 281.956 33.0971 282.027 33.2788L285.313 41.7381C285.407 41.969 285.233 42.2183 284.989 42.2183H281.703C281.506 42.2183 281.351 42.0606 281.351 41.8658C281.351 41.6709 281.506 41.5132 281.703 41.5132ZM279.989 46.4062C279.816 46.4982 279.604 46.4334 279.511 46.2621C279.421 46.0903 279.487 45.8767 279.656 45.7847C280.933 45.1007 282.158 45.1007 283.294 45.795C283.459 45.8964 283.51 46.1133 283.412 46.2794C283.308 46.4456 283.092 46.4977 282.923 46.3959C282.013 45.8367 281.05 45.8368 279.989 46.4062Z" fill="#263E4B"/>
<path fill-rule="evenodd" clip-rule="evenodd" d="M21.0078 252.856L39.7854 310.896L132.5 298.442V230.533L40.9078 248.872L39.7854 256.85L33.7785 250.299L21.0078 252.856Z" fill="white"/>
<path d="M34.0389 249.848C33.9558 249.756 33.8309 249.716 33.7103 249.74L20.9396 252.297C20.7331 252.338 20.6087 252.551 20.6735 252.751L39.4511 310.791C39.5037 310.953 39.6647 311.054 39.8332 311.031L132.548 298.577C132.722 298.554 132.853 298.405 132.853 298.229V230.319C132.853 230.097 132.65 229.93 132.432 229.974L40.8397 248.312C40.6927 248.342 40.5805 248.461 40.5599 248.609L39.5417 255.849L34.0389 249.848ZM33.654 250.47L39.5267 256.875C39.7281 257.094 40.0933 256.981 40.135 256.686L41.2223 248.954L132.149 230.749V297.921L40.0308 310.294L21.4654 252.91L33.654 250.47Z" fill="#263E4B"/>
<path fill-rule="evenodd" clip-rule="evenodd" d="M0.351562 414.418H31.5693C43.8658 382.383 55.1554 362.38 65.4385 354.411C66.046 353.94 62.4238 348.721 54.5719 338.756C59.6616 342.785 63.1824 345.37 65.1343 346.51C66.0535 347.047 66.1319 339.372 65.369 323.482L73.7739 348.953C76.9741 347.344 79.4142 346.216 81.0953 345.571C104.724 336.485 124.127 359.432 139.306 414.418H456.647" fill="white"/>
<path d="M64.9574 346.702C65.2921 346.898 65.5944 346.716 65.7592 346.364C65.8662 346.135 65.9484 345.788 66.0155 345.31C66.1427 344.399 66.2155 342.98 66.2352 341.047C66.2699 337.627 66.1385 332.586 65.8404 325.92L73.4402 348.951C73.5078 349.155 73.7406 349.252 73.9326 349.155C77.1229 347.551 79.5541 346.428 81.2221 345.787C104.573 336.808 123.837 359.592 138.967 414.399C139.009 414.554 139.148 414.657 139.306 414.657H456.648C456.84 414.657 457 414.502 457 414.305C457 414.112 456.84 413.953 456.648 413.953H139.574C124.357 358.977 104.839 335.951 80.9695 345.13C79.3401 345.756 77.0121 346.827 73.981 348.343L65.7038 323.26C65.5756 322.871 64.9982 322.978 65.0179 323.387C65.3991 331.325 65.57 337.211 65.531 341.04C65.5113 342.945 65.44 344.338 65.3179 345.212C65.2677 345.571 65.2095 345.836 65.1494 345.998C63.1848 344.821 59.7278 342.276 54.7907 338.368C54.4635 338.109 54.0373 338.533 54.2959 338.862C58.2176 343.839 61.0826 347.63 62.8886 350.232C63.7866 351.526 64.4213 352.524 64.7902 353.22C64.9677 353.555 65.0804 353.814 65.1287 353.992C65.1381 354.026 65.1442 354.055 65.148 354.079C54.8428 362.117 43.5828 382.068 31.3281 413.953H0.35208C0.157732 413.953 0 414.112 0 414.305C0 414.502 0.157732 414.657 0.35208 414.657H31.5699C31.7158 414.657 31.8464 414.568 31.8985 414.432C44.1729 382.453 55.4381 362.493 65.6545 354.577C66.2319 354.129 65.5249 352.796 63.4669 349.831C61.9403 347.632 59.6672 344.595 56.6473 340.72C60.5291 343.739 63.2965 345.731 64.9574 346.702Z" fill="#263E4B"/>
<path d="M276.021 0.15625H262.685C256.694 0.15625 251.83 4.9882 251.771 10.9717L243.854 22.396C243.692 22.6298 243.86 22.9494 244.144 22.9494H297.662C297.972 22.9494 298.127 22.5758 297.916 22.3523L286.461 10.4694C286.386 4.76052 281.739 0.15625 276.021 0.15625ZM252.412 11.2839C252.453 11.2247 252.474 11.1548 252.474 11.0829C252.474 5.43745 257.046 0.861349 262.685 0.861349H276.021C281.401 0.861349 285.762 5.22714 285.762 10.613C285.762 10.7041 285.795 10.7919 285.86 10.8576L296.831 22.2444H244.817L252.412 11.2839Z" fill="#263E4B"/>
<path fill-rule="evenodd" clip-rule="evenodd" d="M285.969 10.8477L251.972 11.3176L249.625 14.8426H289.762L285.969 10.8477Z" fill="#BAD9EA"/>
<path d="M286.198 10.2598L252.201 10.7297C252.085 10.7316 251.977 10.7903 251.913 10.8865L249.566 14.4115C249.41 14.6458 249.577 14.9594 249.858 14.9594H289.996C290.305 14.9594 290.465 14.5885 290.249 14.3641L286.456 10.3692C286.39 10.2983 286.296 10.2584 286.198 10.2598ZM289.174 14.2543H250.517L252.396 11.432L286.052 10.9668L289.174 14.2543Z" fill="#263E4B"/>
<path fill-rule="evenodd" clip-rule="evenodd" d="M190.711 405.142L186.721 424.412H202.212H262.301C258.835 417.089 254.767 412 250.095 409.137C245.423 406.278 236.895 404.945 224.511 405.142L230.848 372.248L192.823 372.483L192.354 397.152L190.711 405.142Z" fill="white"/>
<path fill-rule="evenodd" clip-rule="evenodd" d="M292.814 402.327V424.649L302.203 424.414H362.291C358.826 417.091 354.756 412.002 350.085 409.138C345.415 406.279 336.885 404.946 324.501 405.143L330.369 372.775L289.293 372.484L292.344 397.153L292.814 402.327Z" fill="white"/>
<path fill-rule="evenodd" clip-rule="evenodd" d="M192.353 397.391C195.947 397.968 198.763 400.24 200.803 404.202C202.842 408.164 203.937 413.488 204.089 420.182L187.658 419.947" fill="#BAD9EA"/>
<path fill-rule="evenodd" clip-rule="evenodd" d="M292.812 397.391C299.225 398.912 303.45 401.653 305.487 405.611C307.525 409.573 308.464 414.431 308.304 420.182L292.812 419.947V397.391Z" fill="#BAD9EA"/>
<path d="M204.029 372.295L206.643 354.27H201.037V353.566H206.744L208.141 343.931H203.15V343.227H230.377V343.931H224.92L223.134 353.566H228.265V354.27H223.004L219.682 372.197L231.274 372.126L226.082 399.077L227.875 394.162C227.95 393.955 228.044 393.753 228.155 393.566C229.173 391.833 231.405 391.251 233.139 392.27C233.431 392.439 233.694 392.655 233.919 392.908C235.096 394.242 234.973 396.27 233.643 397.448L225.299 404.842C226.869 404.447 230.726 403.457 236.391 401.983C236.58 401.936 236.772 402.048 236.821 402.236C236.87 402.424 236.757 402.616 236.569 402.663C232.442 403.738 229.465 404.508 227.501 405.011C238.338 405.057 245.925 406.405 250.278 409.071C255.015 411.977 259.125 417.117 262.618 424.497L262.856 424.999H186.287L190.365 405.306L192.001 397.349L192.477 372.366L204.029 372.295ZM204.741 372.291L211.55 372.248L214.301 354.27H207.354L204.741 372.291ZM212.263 372.244L218.965 372.201L222.288 354.27H215.014L212.263 372.244ZM224.808 405.724C224.777 405.733 224.746 405.733 224.715 405.733L216.774 405.963C216.58 405.973 216.417 405.818 216.412 405.625C216.406 405.428 216.559 405.269 216.753 405.259L223.845 405.053L215.26 397.448C213.93 396.27 213.807 394.242 214.984 392.908C215.208 392.655 215.472 392.439 215.764 392.27C217.498 391.251 219.73 391.833 220.748 393.566C220.859 393.753 220.953 393.955 221.028 394.162L224.452 403.551L224.562 403.245L230.42 372.835L193.168 373.065L192.71 397.124C200.019 399.297 204.209 406.818 204.436 419.596H259.187C256.415 415.071 253.322 411.761 249.91 409.672C245.346 406.879 236.972 405.555 224.808 405.724ZM225.242 403.433L225.123 404.053L233.177 396.922C234.215 396.002 234.311 394.415 233.392 393.378C233.216 393.181 233.011 393.012 232.783 392.875C231.383 392.054 229.584 392.523 228.763 393.922C228.673 394.077 228.597 394.237 228.536 394.401L225.242 403.433ZM259.61 420.3H187.979L187.152 424.295H261.74C261.053 422.877 260.344 421.544 259.61 420.3ZM188.125 419.596H203.732C203.509 407.17 199.504 399.945 192.621 397.833L191.054 405.452L188.125 419.596ZM220.367 394.401C220.306 394.237 220.23 394.077 220.14 393.922C219.319 392.523 217.519 392.054 216.12 392.875C215.892 393.012 215.687 393.181 215.511 393.378C214.592 394.415 214.688 396.002 215.726 396.922L223.937 404.194L220.367 394.401ZM224.203 343.931H216.597L215.122 353.566H222.418L224.203 343.931ZM215.884 343.931H208.853L207.456 353.566H214.409L215.884 343.931Z" fill="#263E4B"/>
<path fill-rule="evenodd" clip-rule="evenodd" d="M189.302 121.523H181.557L190.007 108.129" fill="#BAD9EA"/>
<path d="M297.545 372.178L294.944 354.27H290.466V353.566H294.846L293.447 343.931H289.058V343.227H317.459V343.931H311.394L312.365 353.566H317.694V354.27H312.436L314.248 372.272L330.786 372.366L325.43 403.41L328.805 394.162C328.88 393.955 328.974 393.753 329.087 393.566C330.101 391.833 332.335 391.251 334.068 392.27C334.363 392.439 334.626 392.655 334.847 392.908C336.025 394.242 335.903 396.27 334.575 397.448L326.603 404.508C328.589 404.006 331.927 403.142 336.382 401.983C336.57 401.936 336.762 402.048 336.814 402.236C336.861 402.424 336.748 402.616 336.56 402.663C332.434 403.738 329.458 404.508 327.495 405.006C338.457 405.039 346.118 406.386 350.503 409.071C355.239 411.977 359.352 417.117 362.844 424.497L363.079 424.999H292.466L292.461 424.652L292.231 397.434L288.889 372.126L297.545 372.178ZM298.254 372.183L305.324 372.22L303.737 354.27H295.658L298.254 372.183ZM306.033 372.225L313.539 372.267L311.727 354.27H304.441L306.033 372.225ZM292.884 397.044C303.085 399.1 308.347 406.654 308.652 419.596H359.413C356.643 415.071 353.549 411.761 350.137 409.672C345.588 406.888 337.26 405.564 325.167 405.724C325.12 405.733 325.073 405.733 325.026 405.724C324.942 405.729 324.857 405.729 324.773 405.729C324.754 405.733 324.73 405.733 324.707 405.733L316.764 405.963C316.572 405.973 316.407 405.818 316.403 405.625C316.398 405.428 316.548 405.269 316.745 405.259L323.838 405.053L315.252 397.448C313.919 396.27 313.797 394.242 314.975 392.908C315.201 392.655 315.464 392.439 315.755 392.27C317.492 391.251 319.721 391.833 320.74 393.566C320.848 393.753 320.942 393.955 321.017 394.162L324.613 404.015L329.951 373.065L289.696 372.835L292.884 397.044ZM292.935 397.772L293.123 419.596H307.943C307.647 407.048 302.653 399.809 292.935 397.772ZM359.835 420.3H293.128L293.161 424.295H361.966C361.281 422.877 360.567 421.544 359.835 420.3ZM320.36 394.401C320.299 394.237 320.219 394.077 320.13 393.922C319.308 392.523 317.51 392.054 316.112 392.875C315.881 393.012 315.68 393.181 315.501 393.378C314.581 394.415 314.68 396.002 315.717 396.922L323.928 404.194L320.36 394.401ZM329.467 394.401L325.895 404.194L334.105 396.922C335.147 396.002 335.241 394.415 334.321 393.378C334.147 393.181 333.941 393.012 333.711 392.875C332.312 392.054 330.514 392.523 329.692 393.922C329.603 394.077 329.528 394.237 329.467 394.401ZM310.685 343.931H303.526L304.38 353.566H311.657L310.685 343.931ZM302.817 343.931H294.16L295.555 353.566H303.671L302.817 343.931Z" fill="#263E4B"/>
<path d="M68.494 277.992L69.1868 282.366L65.1619 283.004L65.6815 286.285L60.5074 287.104L59.9877 283.823L45.7866 286.072L45.0938 281.698L57.3166 266.959L62.4912 266.14L64.4694 278.629L68.494 277.992ZM50.6707 280.815L59.2948 279.449L58.1372 272.139L50.6707 280.815ZM82.8893 283.854C74.8976 285.12 70.5196 282.037 69.4577 275.332C68.4001 268.655 71.6157 264.399 79.6075 263.133C87.5701 261.872 91.9772 264.95 93.0302 271.598C94.0873 278.275 90.852 282.593 82.8893 283.854ZM82.2011 279.508C86.743 278.789 88.4527 276.188 87.8555 272.418C87.2631 268.676 84.8375 266.76 80.2957 267.479C75.7538 268.199 74.0347 270.742 74.6319 274.512C75.2337 278.311 77.6588 280.228 82.2011 279.508ZM118.514 270.07L119.206 274.444L115.182 275.081L115.701 278.362L110.527 279.182L110.007 275.901L95.8064 278.15L95.1135 273.776L107.336 259.036L112.511 258.217L114.489 270.707L118.514 270.07ZM100.69 272.892L109.315 271.526L108.157 264.217L100.69 272.892Z" fill="#BAD9EA"/>
<path d="M69.0127 277.359L69.8159 282.429L65.7914 283.066L66.311 286.347L60.4411 287.277L59.9215 283.996L45.7204 286.245L44.9473 281.365L57.3565 266.401L63.0099 265.506L64.9882 277.996L69.0127 277.359ZM64.4028 278.802L62.4245 266.312L57.7292 267.055L45.6927 281.57L46.3058 285.439L60.5069 283.19L61.0261 286.471L65.505 285.761L64.9858 282.481L69.0103 281.843L68.4277 278.164L64.4028 278.802ZM50.0041 281.082L58.592 271.103L59.9238 279.511L50.0041 281.082ZM59.1183 278.926L58.1343 272.715L51.7898 280.087L59.1183 278.926ZM83.1705 283.971C75.1365 285.244 70.4501 282.19 69.3361 275.157C68.2273 268.154 71.741 263.828 79.7788 262.555C87.786 261.287 92.4997 264.338 93.6043 271.313C94.7136 278.319 91.1749 282.704 83.1705 283.971ZM83.0607 283.276C90.6956 282.067 93.955 278.029 92.9086 271.423C91.8678 264.85 87.5278 262.041 79.8886 263.251C72.2199 264.466 68.9864 268.446 70.0318 275.046C71.0824 281.679 75.3952 284.49 83.0607 283.276ZM82.4823 279.626C77.8926 280.353 75.1647 278.466 74.5107 274.337C73.8615 270.24 75.8749 267.628 80.467 266.901C85.0478 266.175 87.7837 268.053 88.4296 272.132C89.0808 276.243 87.0617 278.9 82.4823 279.626ZM82.372 278.93C86.574 278.265 88.3231 275.962 87.7339 272.242C87.1504 268.556 84.7821 266.93 80.5768 267.596C76.3608 268.264 74.6197 270.523 75.206 274.227C75.7979 277.964 78.1597 279.597 82.372 278.93ZM119.032 269.436L119.836 274.506L115.811 275.143L116.33 278.424L110.46 279.354L109.941 276.073L95.7402 278.322L94.9671 273.443L107.376 258.479L113.03 257.584L115.008 270.074L119.032 269.436ZM114.423 270.879L112.444 258.39L107.749 259.133L95.7125 273.647L96.3251 277.517L110.526 275.268L111.046 278.548L115.525 277.839L115.005 274.558L119.03 273.921L118.447 270.242L114.423 270.879ZM100.024 273.16L108.612 263.181L109.944 271.589L100.024 273.16ZM109.138 271.003L108.154 264.792L101.81 272.164L109.138 271.003Z" fill="#263E4B"/>
<path d="M189.916 107.752C189.958 107.592 189.994 107.443 190.024 107.305L190.409 99.1792C191.047 85.7086 202.143 75.1152 215.614 75.1152H242.115V75.8203H215.614C202.519 75.8203 191.733 86.118 191.113 99.2125L191.001 101.575C192.245 96.7968 194.646 92.5221 198.204 88.8511C203.569 83.3178 210.213 86.0757 217.99 96.8799C218.104 97.0376 218.068 97.2583 217.91 97.3719C217.752 97.4859 217.532 97.4498 217.419 97.2921C209.86 86.7916 203.673 84.2233 198.71 89.3421C194.039 94.16 191.417 100.035 190.827 106.751C190.811 106.938 190.777 107.153 190.725 107.397L189.655 130L188.951 129.967L189.346 121.641H181.792C181.515 121.641 181.346 121.335 181.494 121.101L189.916 107.752ZM189.379 120.936L189.943 109.029L182.431 120.936H189.379Z" fill="#263E4B"/>
<path d="M293.827 139.3C293.635 139.293 293.48 139.129 293.489 138.934C293.494 138.74 293.658 138.588 293.855 138.595C296.447 138.694 297.681 137.204 297.625 133.946C297.573 130.672 296.498 129.148 294.376 129.185C294.179 129.189 294.02 129.033 294.015 128.839C294.015 128.644 294.17 128.484 294.362 128.48C296.944 128.435 298.273 130.316 298.329 133.934C298.39 137.568 296.86 139.416 293.827 139.3ZM293.076 164.094C292.884 164.076 292.738 163.905 292.757 163.711C292.776 163.517 292.945 163.374 293.142 163.392C295.724 163.626 297.033 162.203 297.151 158.946C297.268 155.674 296.273 154.095 294.151 154.021C293.959 154.015 293.804 153.851 293.813 153.657C293.818 153.462 293.982 153.31 294.175 153.317C296.757 153.407 297.986 155.354 297.855 158.971C297.724 162.603 296.099 164.368 293.076 164.094ZM277.688 191.529C277.509 191.451 277.425 191.243 277.505 191.065C277.585 190.886 277.791 190.805 277.97 190.883C280.359 191.932 281.955 191.244 282.922 188.741C283.894 186.22 283.382 184.665 281.387 183.898C281.204 183.828 281.115 183.625 281.185 183.443C281.256 183.261 281.457 183.17 281.641 183.24C284.035 184.159 284.682 186.136 283.579 188.994C282.471 191.869 280.448 192.74 277.688 191.529ZM252.336 97.6992L253.016 97.8809C251.732 102.703 249.052 105.549 244.999 106.36L244.861 105.669C248.633 104.914 251.117 102.276 252.336 97.6992Z" fill="#263E4B"/>
<path d="M212.903 107.045L213.842 110.57C213.891 110.758 214.084 110.87 214.272 110.819C214.46 110.769 214.572 110.576 214.522 110.388L213.583 106.863C213.533 106.675 213.34 106.563 213.152 106.614C212.964 106.664 212.852 106.857 212.903 107.045Z" fill="#263E4B"/>
<path d="M213.164 107.297L216.215 108.003C216.405 108.046 216.594 107.928 216.637 107.738C216.681 107.549 216.563 107.359 216.374 107.316L213.322 106.611C213.133 106.567 212.944 106.685 212.9 106.875C212.856 107.065 212.974 107.254 213.164 107.297Z" fill="#263E4B"/>
<path d="M345.657 109.53C343.286 106.664 339.16 106.361 335.757 108.602C334.428 109.474 333.466 110.718 333.01 112.139C331.865 115.719 336.362 124.868 346.507 139.815C346.615 139.976 346.835 140.018 346.995 139.909C347.155 139.799 347.197 139.58 347.089 139.419C337.109 124.715 332.639 115.616 333.682 112.354C334.085 111.089 334.949 109.976 336.142 109.19C339.263 107.136 342.986 107.409 345.117 109.98C345.239 110.13 345.465 110.15 345.61 110.026C345.76 109.902 345.784 109.68 345.657 109.53Z" fill="#263E4B"/>
</svg>
